<svg width="90" height="90" viewBox="0 0 90 90" fill="none" xmlns="http://www.w3.org/2000/svg">
<g clip-path="url(#clip0_1219_1116)">
<path d="M44.9151 89.074C69.5387 89.074 89.5001 69.1341 89.5001 44.537C89.5001 19.9399 69.5387 0 44.9151 0C20.2915 0 0.330078 19.9399 0.330078 44.537C0.330078 69.1341 20.2915 89.074 44.9151 89.074Z" fill="white"/>
<path opacity="0.060774" d="M44.9151 89.074C69.5387 89.074 89.5001 69.1341 89.5001 44.537C89.5001 19.9399 69.5387 0 44.9151 0C20.2915 0 0.330078 19.9399 0.330078 44.537C0.330078 69.1341 20.2915 89.074 44.9151 89.074Z" fill="#303C42"/>
<g opacity="0.5">
<path fill-rule="evenodd" clip-rule="evenodd" d="M53.7112 31.9884V27.1134C53.7112 25.6509 52.7351 24.6759 51.2711 24.6759H36.6303C35.1662 24.6759 34.1902 25.6509 34.1902 27.1134V31.9884H24.4297V36.8634H63.4717V31.9884H53.7112ZM48.831 31.9884H39.0705V29.5509H48.831V31.9884ZM29.3101 58.8009V39.3009H58.5916V42.9375C48.5 42.5 41 54 48.3789 63.6759H34.1904C31.5062 63.6759 29.3101 61.4822 29.3101 58.8009Z" fill="#303C42"/>
<path fill-rule="evenodd" clip-rule="evenodd" d="M49.915 55.5509C49.915 51.0636 53.5566 47.4259 58.0488 47.4259C62.5409 47.4259 66.1825 51.0636 66.1825 55.5509C66.1825 60.0382 62.5409 63.6759 58.0488 63.6759C53.5566 63.6759 49.915 60.0382 49.915 55.5509ZM60.4642 59.3426L61.8445 57.9638L59.429 55.5509L61.8445 53.138L60.4642 51.7592L58.0487 54.1721L55.6333 51.7592L54.253 53.138L56.6685 55.5509L54.253 57.9638L55.6333 59.3426L58.0487 56.9297L60.4642 59.3426Z" fill="#303C42"/>
<mask id="mask0_1219_1116" style="mask-type:luminance" maskUnits="userSpaceOnUse" x="44" y="42" width="27" height="27">
<g opacity="0.5">
<path d="M70.915 42.4259H44.915V68.4259H70.915V42.4259Z" fill="white"/>
<path fill-rule="evenodd" clip-rule="evenodd" d="M49.915 55.5509C49.915 51.0636 53.5566 47.4259 58.0488 47.4259C62.5409 47.4259 66.1825 51.0636 66.1825 55.5509C66.1825 60.0382 62.5409 63.6759 58.0488 63.6759C53.5566 63.6759 49.915 60.0382 49.915 55.5509ZM60.4642 59.3426L61.8445 57.9638L59.429 55.5509L61.8445 53.138L60.4642 51.7592L58.0487 54.1721L55.6333 51.7592L54.253 53.138L56.6685 55.5509L54.253 57.9638L55.6333 59.3426L58.0487 56.9297L60.4642 59.3426Z" fill="black"/>
</g>
</mask>
<g mask="url(#mask0_1219_1116)">
<path d="M61.8445 57.9638L65.0248 61.1475L68.2119 57.9638L65.0248 54.7801L61.8445 57.9638ZM60.4642 59.3426L57.2839 62.5263L60.4642 65.7031L63.6445 62.5263L60.4642 59.3426ZM59.429 55.5509L56.2487 52.3672L53.0616 55.5509L56.2487 58.7346L59.429 55.5509ZM61.8445 53.138L65.0248 56.3217L68.2119 53.138L65.0248 49.9543L61.8445 53.138ZM60.4642 51.7592L63.6445 48.5756L60.4642 45.3987L57.2839 48.5756L60.4642 51.7592ZM58.0487 54.1721L54.8685 57.3558L58.0487 60.5327L61.229 57.3558L58.0487 54.1721ZM55.6333 51.7592L58.8135 48.5756L55.6333 45.3987L52.453 48.5756L55.6333 51.7592ZM54.253 53.138L51.0727 49.9543L47.8856 53.138L51.0727 56.3217L54.253 53.138ZM56.6685 55.5509L59.8487 58.7346L63.0358 55.5509L59.8487 52.3672L56.6685 55.5509ZM54.253 57.9638L51.0727 54.7801L47.8856 57.9638L51.0727 61.1475L54.253 57.9638ZM55.6333 59.3426L52.453 62.5263L55.6333 65.7031L58.8135 62.5263L55.6333 59.3426ZM58.0487 56.9297L61.229 53.746L58.0487 50.5692L54.8685 53.746L58.0487 56.9297ZM58.0488 42.9259C51.0759 42.9259 45.415 48.5737 45.415 55.5509H54.415C54.415 53.5534 56.0374 51.9259 58.0488 51.9259V42.9259ZM70.6825 55.5509C70.6825 48.5737 65.0216 42.9259 58.0488 42.9259V51.9259C60.0602 51.9259 61.6825 53.5534 61.6825 55.5509H70.6825ZM58.0488 68.1759C65.0216 68.1759 70.6825 62.5281 70.6825 55.5509H61.6825C61.6825 57.5484 60.0602 59.1759 58.0488 59.1759V68.1759ZM45.415 55.5509C45.415 62.5281 51.0759 68.1759 58.0488 68.1759V59.1759C56.0374 59.1759 54.415 57.5484 54.415 55.5509H45.415ZM58.6642 54.7801L57.2839 56.1589L63.6445 62.5263L65.0248 61.1475L58.6642 54.7801ZM56.2487 58.7346L58.6642 61.1475L65.0248 54.7801L62.6093 52.3672L56.2487 58.7346ZM58.6642 49.9543L56.2487 52.3672L62.6093 58.7346L65.0248 56.3217L58.6642 49.9543ZM57.2839 54.9429L58.6642 56.3217L65.0248 49.9543L63.6445 48.5756L57.2839 54.9429ZM61.229 57.3558L63.6445 54.9429L57.2839 48.5756L54.8685 50.9884L61.229 57.3558ZM52.453 54.9429L54.8685 57.3558L61.229 50.9884L58.8135 48.5756L52.453 54.9429ZM57.4333 56.3217L58.8135 54.9429L52.453 48.5756L51.0727 49.9543L57.4333 56.3217ZM59.8487 52.3672L57.4333 49.9543L51.0727 56.3217L53.4882 58.7346L59.8487 52.3672ZM57.4333 61.1475L59.8487 58.7346L53.4882 52.3672L51.0727 54.7801L57.4333 61.1475ZM58.8135 56.1589L57.4333 54.7801L51.0727 61.1475L52.453 62.5263L58.8135 56.1589ZM54.8685 53.746L52.453 56.1589L58.8135 62.5263L61.229 60.1134L54.8685 53.746ZM63.6445 56.1589L61.229 53.746L54.8685 60.1134L57.2839 62.5263L63.6445 56.1589Z" fill="#E8EAEA"/>
</g>
</g>
</g>
<defs>
<clipPath id="clip0_1219_1116">
<rect width="90" height="90" fill="white"/>
</clipPath>
</defs>
</svg>
